<svg width="44" height="45" viewBox="0 0 44 45" fill="none" xmlns="http://www.w3.org/2000/svg">
<path d="M1.96652 23.333C0.748799 23.333 0.138962 21.8607 1.00002 20.9997L20.3504 1.64932C21.2615 0.738433 22.7385 0.738433 23.6497 1.64932L43 20.9997C43.8611 21.8607 43.2512 23.333 42.0335 23.333V23.333C41.2786 23.333 40.6667 23.9449 40.6667 24.6998V41.9997C40.6667 43.2883 39.622 44.333 38.3334 44.333H34.8334C30.323 44.333 26.6667 40.6767 26.6667 36.1663V32.6663C26.6667 30.089 24.5774 27.9997 22 27.9997V27.9997C19.4227 27.9997 17.3334 30.089 17.3334 32.6663V36.1663C17.3334 40.6767 13.677 44.333 9.16669 44.333H5.66669C4.37802 44.333 3.33335 43.2883 3.33335 41.9997V24.6998C3.33335 23.9449 2.7214 23.333 1.96652 23.333V23.333Z" fill="url(#paint0_linear_1_898)"/>
<defs>
<linearGradient id="paint0_linear_1_898" x1="22.1609" y1="-6.22361" x2="24.6749" y2="49.6939" gradientUnits="userSpaceOnUse">
<stop stop-color="#9C2CF3"/>
<stop offset="1" stop-color="#3A49F9"/>
</linearGradient>
</defs>
</svg>
