<svg width="55" height="55" viewBox="0 0 55 55" fill="none" xmlns="http://www.w3.org/2000/svg">
<rect x="29.4716" y="34.2344" width="5.67857" height="16.0893" rx="2.83929" transform="rotate(-45 29.4716 34.2344)" fill="#D8DEF3"/>
<path fill-rule="evenodd" clip-rule="evenodd" d="M35.1601 35.239C41.6282 28.771 41.6282 18.2842 35.1601 11.8161C28.6921 5.34804 18.2053 5.34804 11.7372 11.8161C5.26915 18.2842 5.26915 28.771 11.7372 35.239C18.2053 41.7071 28.6921 41.7071 35.1601 35.239ZM31.8139 31.8931C36.434 27.273 36.434 19.7825 31.8139 15.1624C27.1939 10.5424 19.7033 10.5424 15.0833 15.1624C10.4632 19.7825 10.4632 27.273 15.0833 31.8931C19.7033 36.5131 27.1939 36.5131 31.8139 31.8931Z" fill="#D8DEF3"/>
</svg>
